<svg width="18" height="14" viewBox="0 0 18 14" fill="none" xmlns="http://www.w3.org/2000/svg">
<path d="M5.89286 6.64281C7.66741 6.64281 9.10714 5.20307 9.10714 3.42852C9.10714 1.65397 7.66741 0.214233 5.89286 0.214233C4.1183 0.214233 2.67857 1.65397 2.67857 3.42852C2.67857 5.20307 4.1183 6.64281 5.89286 6.64281ZM13.9286 7.71423V4.76781C13.9286 4.62551 13.803 4.49995 13.6607 4.49995H12.0536C11.9113 4.49995 11.7857 4.62551 11.7857 4.76781V7.71423H8.83929C8.69699 7.71423 8.57143 7.83979 8.57143 7.98209V9.58923C8.57143 9.73153 8.69699 9.85709 8.83929 9.85709H11.7857V12.8035C11.7857 12.9458 11.9113 13.0714 12.0536 13.0714H13.6607C13.803 13.0714 13.9286 12.9458 13.9286 12.8035V9.85709H16.875C17.0173 9.85709 17.1429 9.73153 17.1429 9.58923V7.98209C17.1429 7.83979 17.0173 7.71423 16.875 7.71423H13.9286ZM7.76786 9.58923V7.98209C7.76786 7.39615 8.25335 6.91066 8.83929 6.91066H10.7059C10.2288 6.37495 9.601 6.10709 8.88951 6.10709C8.75558 6.10709 8.6635 6.16568 8.56306 6.24939C7.74275 6.87718 6.94755 7.2706 5.89286 7.2706C4.83817 7.2706 4.04297 6.87718 3.22266 6.24939C3.12221 6.16568 3.03013 6.10709 2.89621 6.10709C0.443638 6.10709 0 9.01167 0 10.9034C0 12.2678 0.895647 13.0714 2.23493 13.0714H9.55078C10.053 13.0714 10.572 12.9542 10.9821 12.6529V10.6607H8.83929C8.25335 10.6607 7.76786 10.1752 7.76786 9.58923Z" fill="#34AAFF"/>
</svg>
